<?xml version="1.0" standalone="no"?>
<!DOCTYPE svg PUBLIC "-//W3C//DTD SVG 20010904//EN"
 "http://www.w3.org/TR/2001/REC-SVG-20010904/DTD/svg10.dtd">
<svg version="1.0" xmlns="http://www.w3.org/2000/svg"
 width="1024.000000pt" height="1024.000000pt" viewBox="0 0 1024.000000 1024.000000"
 preserveAspectRatio="xMidYMid meet">
<metadata>
Created by potrace 1.11, written by Peter Selinger 2001-2013
</metadata>
<g transform="translate(0.000000,1024.000000) scale(0.100000,-0.100000)"
fill="#000000" stroke="none">
<path d="M4860 8058 c-633 -25 -1174 -220 -1615 -583 -279 -230 -506 -525
-691 -900 -138 -281 -224 -528 -293 -842 -174 -798 -114 -1769 144 -2330 72
-155 203 -333 351 -473 161 -151 311 -257 521 -363 381 -193 763 -299 1318
-364 189 -22 808 -25 1010 -5 413 41 825 121 1044 202 263 96 480 233 680 425
499 481 775 1269 747 2130 -13 405 -72 743 -196 1115 -265 798 -724 1372
-1346 1684 -463 231 -1009 331 -1674 304z m-1069 -1206 c98 -63 152 -157 178
-312 l16 -98 74 54 c165 121 371 218 570 269 505 128 1025 32 1438 -266 45
-32 84 -59 87 -59 3 0 6 24 6 53 0 146 79 299 187 362 42 25 52 27 127 23 97
-6 156 -28 273 -105 99 -65 183 -155 226 -243 27 -55 32 -75 32 -140 0 -65 -5
-85 -33 -142 -73 -148 -196 -215 -378 -206 -68 4 -92 2 -85 -6 23 -29 107
-190 142 -274 88 -211 120 -367 126 -617 5 -165 2 -207 -17 -320 -12 -71 -41
-190 -65 -263 -43 -128 -148 -350 -170 -359 -6 -2 -49 10 -96 27 -200 74 -497
134 -635 128 -61 -3 -69 -5 -69 -23 0 -16 7 -20 40 -22 112 -8 252 -27 355
-49 116 -26 348 -98 364 -114 9 -9 -81 -130 -172 -229 l-59 -65 -84 66 c-46
36 -120 89 -164 119 -132 88 -325 180 -325 155 0 -2 -3 -11 -6 -20 -5 -12 10
-23 61 -46 37 -17 109 -55 160 -85 95 -56 287 -193 301 -216 9 -16 -38 -57
-171 -148 -290 -199 -596 -291 -960 -291 -367 0 -675 95 -975 301 -119 82
-165 123 -156 138 14 22 203 159 294 213 48 28 120 66 160 84 56 26 73 38 70
51 -6 31 -36 26 -131 -20 -107 -52 -246 -142 -366 -235 l-85 -66 -58 65 c-87
95 -180 221 -171 230 16 15 249 87 363 113 103 22 243 41 355 49 33 2 40 6 40
22 0 59 -365 9 -664 -92 -158 -53 -135 -64 -216 102 -63 129 -115 278 -147
425 -30 142 -33 494 -5 635 42 210 118 411 220 585 l26 45 -107 0 c-99 0 -112
3 -174 32 -81 38 -146 102 -185 181 -23 47 -28 70 -28 132 0 63 5 85 31 140
41 85 106 163 191 226 124 94 218 132 329 133 60 1 76 -3 115 -27z"/>
<path d="M4145 5260 c-40 -15 -60 -49 -60 -102 0 -42 4 -53 28 -74 37 -32 77
-31 111 2 67 68 5 205 -79 174z"/>
<path d="M5841 5253 c-84 -41 -53 -193 39 -193 42 0 80 49 80 104 0 77 -56
119 -119 89z"/>
<path d="M4820 4920 c-106 -15 -197 -40 -220 -62 -18 -17 -21 -28 -16 -60 14
-88 109 -233 205 -313 53 -44 82 -59 139 -74 l42 -12 0 -259 c0 -296 10 -272
-95 -245 -79 21 -154 56 -227 106 -61 41 -88 45 -88 11 0 -18 83 -79 165 -120
202 -101 451 -88 653 36 82 50 113 78 106 97 -9 23 -29 18 -82 -20 -97 -69
-248 -125 -339 -125 l-43 0 0 265 c0 252 1 265 19 265 34 0 156 69 227 129
121 102 215 246 187 289 -16 26 -69 53 -142 75 -51 15 -106 20 -246 22 -99 2
-209 0 -245 -5z"/>
<path d="M3529 4759 c-6 -3 -9 -15 -7 -25 3 -16 20 -20 128 -31 227 -23 464
-82 650 -162 90 -40 110 -41 110 -10 0 46 -340 163 -590 203 -125 21 -278 34
-291 25z"/>
<path d="M6545 4763 c-105 -8 -301 -38 -405 -63 -212 -52 -420 -136 -420 -170
0 -30 20 -28 112 11 182 79 422 140 638 160 118 12 150 20 150 40 0 15 -34 24
-75 22z"/>
</g>
</svg>
